<?xml version="1.0" standalone="no"?>
<!DOCTYPE svg PUBLIC "-//W3C//DTD SVG 20010904//EN"
 "http://www.w3.org/TR/2001/REC-SVG-20010904/DTD/svg10.dtd">
<svg version="1.0" xmlns="http://www.w3.org/2000/svg"
 width="200.000000pt" height="200.000000pt" viewBox="0 0 200.000000 200.000000"
 preserveAspectRatio="xMidYMid meet">
<metadata>
Created by potrace 1.11, written by Peter Selinger 2001-2013
</metadata>
<g transform="translate(0.000000,200.000000) scale(0.100000,-0.100000)"
fill="#000000" stroke="none">
<path d="M309 1965 c-2 -5 -31 -23 -63 -40 -33 -16 -75 -45 -93 -65 -42 -44
-77 -115 -70 -140 3 -11 2 -18 -3 -15 -10 6 -20 -46 -20 -106 0 -30 4 -49 11
-49 9 0 10 -35 4 -132 -5 -73 -8 -144 -7 -158 7 -133 8 -226 1 -231 -5 -3 -5
-50 1 -105 5 -55 10 -218 10 -362 1 -154 6 -260 11 -256 5 3 9 -1 9 -9 0 -19
17 -51 55 -104 22 -31 50 -53 101 -78 l70 -35 351 0 c271 0 369 -3 430 -15 89
-17 339 -20 503 -5 170 15 261 74 322 206 l23 49 -3 695 c-1 382 -5 704 -9
715 -13 46 -44 102 -75 135 -36 39 -114 84 -164 94 -42 9 -1357 11 -1371 3 -6
-4 -13 -1 -15 5 -3 7 -6 9 -9 3z m783 -286 c51 -45 118 -105 149 -133 30 -28
86 -78 124 -111 242 -211 370 -327 370 -334 0 -4 -14 -25 -32 -46 l-32 -37
-93 82 c-415 368 -571 505 -579 508 -11 4 -102 -74 -499 -428 -41 -37 -99 -88
-129 -115 l-55 -48 -33 39 c-18 21 -33 41 -33 44 0 3 104 98 232 210 258 228
402 357 463 412 22 21 43 38 47 38 4 0 49 -37 100 -81z m169 -410 l259 -230
-2 -347 -3 -347 -172 -3 -173 -2 0 149 c0 123 -3 152 -16 165 -13 13 -41 16
-155 16 -78 0 -149 -5 -160 -10 -18 -10 -19 -23 -19 -166 l0 -154 -172 2 -173
3 -3 348 -2 347 32 29 c18 16 134 119 258 229 124 111 229 201 233 202 4 0
125 -104 268 -231z"/>
</g>
</svg>
