<?xml version="1.0" standalone="no"?>
<!DOCTYPE svg PUBLIC "-//W3C//DTD SVG 20010904//EN"
 "http://www.w3.org/TR/2001/REC-SVG-20010904/DTD/svg10.dtd">
<svg version="1.0" xmlns="http://www.w3.org/2000/svg"
 width="540.000000pt" height="540.000000pt" viewBox="0 0 540.000000 540.000000"
 preserveAspectRatio="xMidYMid meet">
<metadata>
Created by potrace 1.11, written by Peter Selinger 2001-2013
</metadata>
<g transform="translate(0.000000,540.000000) scale(0.100000,-0.100000)"
fill="#000000" stroke="none">
<path d="M0 2700 l0 -2700 2700 0 2700 0 0 2700 0 2700 -2700 0 -2700 0 0
-2700z m3400 1090 l0 -160 205 0 206 0 39 -37 c21 -21 174 -193 339 -382 193
-220 304 -355 309 -375 12 -43 -2 -94 -33 -125 l-25 -26 -737 -3 -737 -2 -141
142 c-248 253 -731 752 -760 786 l-28 34 -476 -476 c-324 -323 -485 -477 -504
-482 -70 -17 -139 19 -156 83 -21 76 -25 72 512 612 276 277 520 516 541 532
30 22 50 29 85 29 l46 0 152 -155 151 -155 346 0 346 0 0 160 0 160 160 0 160
0 0 -160z m-1430 -825 l0 -135 -130 0 -130 0 0 135 0 135 130 0 130 0 0 -135z
m380 0 l0 -135 -135 0 -135 0 0 135 0 135 135 0 135 0 0 -135z m-380 -360 l0
-135 -130 0 -130 0 0 135 0 135 130 0 130 0 0 -135z m380 0 l0 -135 -135 0
-135 0 0 135 0 135 135 0 135 0 0 -135z m-2096 -197 c11 -15 16 -46 16 -95 l0
-73 95 0 95 0 0 79 c0 87 12 111 55 111 49 0 55 -27 55 -250 0 -221 -6 -250
-52 -250 -46 0 -58 26 -58 127 l0 93 -95 0 -95 0 0 -88 c0 -98 -14 -132 -55
-132 -52 0 -55 13 -55 250 0 185 2 221 16 234 22 23 60 20 78 -6z m633 0 c22
-24 173 -397 173 -427 0 -26 -35 -53 -62 -49 -17 2 -31 19 -52 61 l-28 57 -83
0 -82 0 -18 -47 c-23 -62 -32 -73 -61 -73 -28 0 -54 25 -54 51 0 36 150 413
171 432 29 24 71 22 96 -5z m3588 -1 c75 -38 112 -100 122 -201 10 -112 -35
-207 -121 -254 -22 -12 -56 -17 -112 -17 -72 0 -86 3 -129 30 -73 45 -100 104
-100 215 0 131 41 198 144 237 45 17 155 12 196 -10z m289 1 c13 -19 16 -58
16 -228 0 -223 -6 -250 -55 -250 -52 0 -55 13 -55 250 0 185 2 221 16 234 22
23 60 20 78 -6z m-3511 -2 c8 -8 29 -72 48 -141 l33 -127 12 43 c7 24 22 81
34 127 13 46 29 90 37 98 19 19 102 18 131 -2 22 -15 22 -19 22 -229 0 -231
-3 -245 -55 -245 -48 0 -55 21 -56 158 l-1 127 -34 -130 c-35 -132 -48 -155
-89 -155 -44 0 -58 24 -91 156 l-32 129 -1 -127 c-1 -137 -8 -158 -56 -158
-52 0 -55 14 -55 242 0 248 0 248 86 248 32 0 58 -6 67 -14z m530 0 c8 -8 29
-72 48 -141 l33 -127 12 43 c7 24 22 81 34 127 13 46 29 90 37 98 19 19 102
18 131 -2 22 -15 22 -19 22 -229 0 -231 -3 -245 -55 -245 -48 0 -55 21 -56
158 l-1 127 -34 -130 c-35 -132 -48 -155 -89 -155 -44 0 -58 24 -91 156 l-32
129 -1 -127 c-1 -137 -8 -158 -56 -158 -52 0 -55 14 -55 242 0 248 0 248 86
248 32 0 58 -6 67 -14z m735 2 c7 -7 12 -21 12 -33 0 -39 -18 -45 -137 -45
l-113 0 0 -50 0 -50 103 0 c108 0 127 -7 127 -45 0 -38 -19 -45 -127 -45
l-103 0 0 -55 0 -55 111 0 c121 0 149 -8 149 -45 0 -14 -8 -29 -19 -35 -11 -5
-85 -10 -170 -10 -123 0 -152 3 -165 16 -14 13 -16 48 -16 224 0 176 2 211 16
224 13 13 43 16 168 16 105 0 156 -4 164 -12z m391 -1 c97 -34 108 -190 17
-234 l-35 -16 31 -36 c17 -19 42 -59 55 -88 23 -51 24 -55 9 -78 -19 -29 -57
-33 -80 -9 -9 8 -34 46 -56 84 -44 76 -80 110 -116 110 -23 0 -24 -2 -24 -83
0 -59 -5 -89 -16 -105 -18 -26 -50 -28 -76 -5 -16 15 -18 35 -18 229 0 180 2
215 16 228 12 13 39 16 137 15 67 0 137 -5 156 -12z m586 2 c90 -25 143 -130
132 -260 -6 -70 -30 -131 -65 -162 -36 -33 -93 -46 -201 -47 -149 0 -141 -14
-141 241 0 175 2 210 16 223 19 19 195 22 259 5z m504 -2 c97 -34 108 -190 17
-234 l-35 -16 31 -36 c17 -19 42 -59 55 -88 23 -51 24 -55 9 -78 -19 -29 -57
-33 -80 -9 -9 8 -34 46 -56 84 -44 76 -80 110 -116 110 -23 0 -24 -2 -24 -83
0 -59 -5 -89 -16 -105 -18 -26 -50 -28 -76 -5 -16 15 -18 35 -18 229 0 180 2
215 16 228 12 13 39 16 137 15 67 0 137 -5 156 -12z m1136 2 c90 -25 143 -130
132 -260 -6 -70 -30 -131 -65 -162 -36 -33 -93 -46 -201 -47 -149 0 -141 -14
-141 241 0 175 2 210 16 223 19 19 195 22 259 5z"/>
<path d="M3416 3582 c-3 -5 19 -19 48 -31 66 -27 97 -74 78 -116 -7 -14 -12
-34 -12 -43 0 -9 -31 -50 -68 -90 l-67 -74 -32 32 -32 31 -35 -38 -35 -38 27
-28 27 -28 -150 -149 c-82 -82 -151 -154 -153 -160 -7 -20 7 -55 33 -82 31
-33 76 -37 96 -9 8 10 67 84 132 165 l119 146 38 -48 c103 -126 216 -256 227
-259 15 -5 80 56 87 82 4 16 -27 54 -142 172 l-147 152 65 75 c71 81 96 91
149 60 21 -12 27 -22 23 -40 -8 -42 25 -41 69 2 42 41 47 55 24 74 -12 10 -18
10 -30 0 -12 -10 -15 -7 -21 17 -25 110 -168 233 -270 233 -24 0 -45 -4 -48
-8z m268 -717 c8 -22 -4 -45 -24 -45 -20 0 -32 23 -24 45 4 8 14 15 24 15 10
0 20 -7 24 -15z"/>
<path d="M3141 3539 c-18 -22 -32 -41 -30 -43 107 -75 111 -79 104 -105 -8
-32 -14 -38 -45 -46 -23 -5 -29 0 -60 54 -18 34 -36 61 -39 60 -3 0 -21 -19
-40 -40 l-34 -40 44 -91 c24 -49 47 -92 51 -94 3 -2 17 0 30 5 13 5 46 16 75
25 78 24 106 59 132 163 l22 88 -28 23 c-32 25 -129 82 -140 82 -5 0 -23 -19
-42 -41z"/>
<path d="M812 2218 c-12 -35 -22 -66 -22 -70 0 -5 22 -8 49 -8 l50 0 -21 63
c-11 34 -24 65 -27 70 -4 4 -17 -21 -29 -55z"/>
<path d="M4304 2321 c-85 -52 -82 -240 5 -285 119 -62 226 90 162 231 -32 69
-104 92 -167 54z"/>
<path d="M2710 2275 l0 -55 58 0 c96 0 140 42 93 89 -17 17 -34 21 -86 21
l-65 0 0 -55z"/>
<path d="M3330 2180 l0 -150 50 0 c28 0 64 7 79 15 52 27 76 133 48 215 -15
44 -64 70 -129 70 l-48 0 0 -150z"/>
<path d="M3800 2275 l0 -55 58 0 c96 0 140 42 93 89 -17 17 -34 21 -86 21
l-65 0 0 -55z"/>
<path d="M4970 2180 l0 -150 50 0 c28 0 64 7 79 15 52 27 76 133 48 215 -15
44 -64 70 -129 70 l-48 0 0 -150z"/>
</g>
</svg>
